<svg width="18" height="18" viewBox="0 0 18 18" fill="none" xmlns="http://www.w3.org/2000/svg">
<path d="M8.40817 12.0917C8.48742 12.1675 8.58088 12.227 8.68317 12.2667C8.88605 12.35 9.11362 12.35 9.3165 12.2667C9.4188 12.227 9.51225 12.1675 9.5915 12.0917L12.0915 9.59167C12.2484 9.43475 12.3366 9.22192 12.3366 9C12.3366 8.77808 12.2484 8.56525 12.0915 8.40833C11.9346 8.25141 11.7218 8.16326 11.4998 8.16326C11.2779 8.16326 11.0651 8.25141 10.9082 8.40833L9.83317 9.49167V6.5C9.83317 6.27899 9.74537 6.06703 9.58909 5.91075C9.43281 5.75447 9.22085 5.66667 8.99984 5.66667C8.77882 5.66667 8.56686 5.75447 8.41058 5.91075C8.2543 6.06703 8.1665 6.27899 8.1665 6.5V9.49167L7.0915 8.40833C7.01404 8.33023 6.92187 8.26823 6.82032 8.22593C6.71877 8.18362 6.60985 8.16184 6.49984 8.16184C6.38983 8.16184 6.28091 8.18362 6.17936 8.22593C6.07781 8.26823 5.98564 8.33023 5.90817 8.40833C5.83006 8.4858 5.76807 8.57797 5.72576 8.67952C5.68345 8.78107 5.66167 8.88999 5.66167 9C5.66167 9.11001 5.68345 9.21893 5.72576 9.32048C5.76807 9.42203 5.83006 9.5142 5.90817 9.59167L8.40817 12.0917ZM8.99984 17.3333C10.648 17.3333 12.2592 16.8446 13.6296 15.9289C15 15.0132 16.0681 13.7117 16.6988 12.189C17.3296 10.6663 17.4946 8.99076 17.173 7.37425C16.8515 5.75774 16.0578 4.27288 14.8924 3.10744C13.727 1.94201 12.2421 1.14833 10.6256 0.826791C9.00908 0.505247 7.33353 0.670275 5.81081 1.30101C4.28809 1.93174 2.9866 2.99984 2.07092 4.37025C1.15525 5.74066 0.666504 7.35182 0.666504 9C0.666504 11.2101 1.54448 13.3298 3.10728 14.8926C3.8811 15.6664 4.79976 16.2802 5.81081 16.699C6.82186 17.1178 7.90549 17.3333 8.99984 17.3333ZM8.99984 2.33333C10.3184 2.33333 11.6073 2.72433 12.7036 3.45687C13.8 4.18941 14.6545 5.2306 15.159 6.44878C15.6636 7.66695 15.7956 9.0074 15.5384 10.3006C15.2812 11.5938 14.6462 12.7817 13.7139 13.714C12.7815 14.6464 11.5936 15.2813 10.3004 15.5386C9.00723 15.7958 7.66679 15.6638 6.44862 15.1592C5.23044 14.6546 4.18925 13.8001 3.45671 12.7038C2.72416 11.6075 2.33317 10.3185 2.33317 9C2.33317 7.23189 3.03555 5.5362 4.28579 4.28596C5.53604 3.03571 7.23173 2.33333 8.99984 2.33333Z" fill="#0E8080"/>
</svg>
