<svg xmlns="http://www.w3.org/2000/svg" xmlns:xlink="http://www.w3.org/1999/xlink" width="30.5" height="28.5" viewBox="0 0 30.5 28.5"><defs><style>.a{fill:#2fcbab;}.b{fill:#fff;}.c{filter:url(#a);}</style><filter id="a" x="0" y="0" width="30.5" height="28.5" filterUnits="userSpaceOnUse"><feOffset dx="2" dy="2" input="SourceAlpha"/><feGaussianBlur stdDeviation="0.5" result="b"/><feFlood flood-opacity="0.161"/><feComposite operator="in" in2="b"/><feComposite in="SourceGraphic"/></filter></defs><g class="c" transform="matrix(1, 0, 0, 1, 0, 0)"><rect class="a" width="27" height="25" rx="2"/></g><g transform="translate(-1.703 4)"><path class="b" d="M23.194,10.505,21.61,9.267a5.764,5.764,0,0,0,0-1.3L23.2,6.726a.777.777,0,0,0,.187-.99L21.735,2.888a.779.779,0,0,0-.953-.343L18.915,3.3a6.4,6.4,0,0,0-1.122-.651L17.507.661A.763.763,0,0,0,16.745,0h-3.3a.761.761,0,0,0-.758.655L12.4,2.644a6.632,6.632,0,0,0-1.12.652L9.4,2.544a.763.763,0,0,0-.946.337L6.809,5.734A.771.771,0,0,0,7,6.728L8.58,7.967a5.71,5.71,0,0,0,0,1.3L6.995,10.507a.776.776,0,0,0-.188.99l1.647,2.849a.778.778,0,0,0,.953.343l1.867-.751a6.425,6.425,0,0,0,1.122.652l.287,1.982a.762.762,0,0,0,.758.661h3.3a.762.762,0,0,0,.76-.655l.287-1.989a6.646,6.646,0,0,0,1.12-.652l1.874.753a.764.764,0,0,0,.946-.337l1.654-2.865A.775.775,0,0,0,23.194,10.505Zm-8.1,1.7a3.59,3.59,0,1,1,3.59-3.59A3.59,3.59,0,0,1,15.093,12.207Z" transform="translate(0 0)"/></g></svg>