<svg width="16" height="16" viewBox="0 0 16 16" fill="none" xmlns="http://www.w3.org/2000/svg">
<path d="M14.75 0.5H1.25C1.05109 0.5 0.860322 0.579018 0.71967 0.71967C0.579018 0.860322 0.5 1.05109 0.5 1.25V14.75C0.5 14.9489 0.579018 15.1397 0.71967 15.2803C0.860322 15.421 1.05109 15.5 1.25 15.5H14.75C14.9489 15.5 15.1397 15.421 15.2803 15.2803C15.421 15.1397 15.5 14.9489 15.5 14.75V1.25C15.5 1.05109 15.421 0.860322 15.2803 0.71967C15.1397 0.579018 14.9489 0.5 14.75 0.5ZM5 14H2V11H5V14ZM5 9.5H2V6.5H5V9.5ZM5 5H2V2H5V5ZM9.5 14H6.5V11H9.5V14ZM9.5 9.5H6.5V6.5H9.5V9.5ZM9.5 5H6.5V2H9.5V5ZM14 14H11V11H14V14ZM14 9.5H11V6.5H14V9.5ZM14 5H11V2H14V5Z" fill="#0E8080"/>
</svg>
