<svg xmlns="http://www.w3.org/2000/svg" width="35.949" height="33.451" viewBox="0 0 35.949 33.451"><defs><style>.a{fill:#fff;}</style></defs><g transform="translate(0 -17.79)"><g transform="translate(0 17.79)"><g transform="translate(0 0)"><path class="a" d="M3.641,82.815A3.643,3.643,0,1,0,.023,79.58,3.648,3.648,0,0,0,3.641,82.815Zm-.148-4.976a1.259,1.259,0,0,1,.153-.009,1.343,1.343,0,1,1-.153.009Z" transform="translate(0 -71.475)"/><path class="a" d="M297.113,25.077a3.521,3.521,0,0,0,.41-.023,3.643,3.643,0,1,0-.41.023Zm-.148-4.977a1.26,1.26,0,0,1,.153-.009,1.349,1.349,0,1,1-.153.009Z" transform="translate(-272.866 -17.79)"/><path class="a" d="M415.464,334.607a3.643,3.643,0,1,0-3.622,4.051,3.787,3.787,0,0,0,.41-.022,3.644,3.644,0,0,0,3.212-4.029Zm-2.57,1.245a1.342,1.342,0,1,1-1.2-2.17,1.422,1.422,0,0,1,.153-.009,1.342,1.342,0,0,1,1.046,2.179Z" transform="translate(-379.538 -309.354)"/><path class="a" d="M6.635,390.41a3.644,3.644,0,0,0,.405,7.265,3.818,3.818,0,0,0,.411-.023,3.644,3.644,0,1,0-.816-7.242Zm1.457,4.458a1.342,1.342,0,1,1-1.2-2.171,1.247,1.247,0,0,1,.152-.009,1.342,1.342,0,0,1,1.048,2.18Z" transform="translate(-3.161 -364.223)"/><path class="a" d="M110.523,72.157a1.183,1.183,0,0,0,.223-.022l10.231-2.013a1.151,1.151,0,0,0-.444-2.258L110.3,69.877a1.151,1.151,0,0,0,.221,2.28Z" transform="translate(-101.694 -64.328)"/><path class="a" d="M356.578,126.747a1.151,1.151,0,0,0-.686,1.476l4.287,11.712a1.151,1.151,0,0,0,2.161-.791l-4.286-11.712A1.151,1.151,0,0,0,356.578,126.747Z" transform="translate(-330.838 -119.031)"/><path class="a" d="M133.11,377.88l-17.838,2.6a1.151,1.151,0,0,0,.165,2.29,1.274,1.274,0,0,0,.168-.012l17.838-2.6a1.151,1.151,0,1,0-.332-2.278Z" transform="translate(-106.263 -352.586)"/><path class="a" d="M37.49,189.2h-.013a1.15,1.15,0,0,0-1.138,1.162l.12,11.131a1.151,1.151,0,0,0,1.151,1.138h.013a1.15,1.15,0,0,0,1.138-1.162l-.12-11.131A1.151,1.151,0,0,0,37.49,189.2Z" transform="translate(-33.787 -177.168)"/></g></g></g></svg>