<svg width="67" height="52" viewBox="0 0 67 52" fill="none" xmlns="http://www.w3.org/2000/svg">
<path d="M7.08164 12.5533L1 15.2119L5.70075 22.3695L11.7824 19.7109L7.08164 12.5533Z" fill="#FFFF5A" stroke="#FEFFFF" stroke-width="0.0457289"/>
<path d="M11.7828 19.7109L5.70117 22.3695L10.4019 29.5272L16.4836 26.8686L11.7828 19.7109Z" fill="#FBF05E" stroke="#FEFFFF" stroke-width="0.0457289"/>
<path d="M16.483 26.8685L10.4014 29.5271L15.1021 36.6848L21.1838 34.0262L16.483 26.8685Z" fill="#F7E162" stroke="#FEFFFF" stroke-width="0.0457289"/>
<path d="M21.1842 34.0261L15.1025 36.6847L19.8033 43.8424L25.8849 41.1837L21.1842 34.0261Z" fill="#F3D466" stroke="#FEFFFF" stroke-width="0.0457289"/>
<path d="M25.8844 41.1838L19.8027 43.8424L24.5035 51L30.5851 48.3414L25.8844 41.1838Z" fill="#EEC86B" stroke="#FEFFFF" stroke-width="0.0457289"/>
<path d="M13.1637 9.89465L7.08203 12.5533L11.7828 19.7109L17.8644 17.0523L13.1637 9.89465Z" fill="#FBF05E" stroke="#FEFFFF" stroke-width="0.0457289"/>
<path d="M17.8639 17.0523L11.7822 19.7109L16.483 26.8685L22.5646 24.2099L17.8639 17.0523Z" fill="#F7E162" stroke="#FEFFFF" stroke-width="0.0457289"/>
<path d="M22.565 24.2099L16.4834 26.8685L21.1842 34.0261L27.2658 31.3675L22.565 24.2099Z" fill="#F3D466" stroke="#FEFFFF" stroke-width="0.0457289"/>
<path d="M27.2652 31.3676L21.1836 34.0262L25.8843 41.1838L31.966 38.5252L27.2652 31.3676Z" fill="#EEC86B" stroke="#FEFFFF" stroke-width="0.0457289"/>
<path d="M31.9664 38.5251L25.8848 41.1837L30.5855 48.3414L36.6672 45.6828L31.9664 38.5251Z" fill="#EABE6F" stroke="#FEFFFF" stroke-width="0.0457289"/>
<path d="M19.2447 7.23611L13.1631 9.89471L17.8638 17.0523L23.9455 14.3937L19.2447 7.23611Z" fill="#F7E162" stroke="#FEFFFF" stroke-width="0.0457289"/>
<path d="M23.9459 14.3937L17.8643 17.0523L22.565 24.2099L28.6467 21.5513L23.9459 14.3937Z" fill="#F3D466" stroke="#FEFFFF" stroke-width="0.0457289"/>
<path d="M28.6461 21.5514L22.5645 24.21L27.2652 31.3676L33.3469 28.709L28.6461 21.5514Z" fill="#EEC86B" stroke="#FEFFFF" stroke-width="0.0457289"/>
<path d="M33.3473 28.7089L27.2656 31.3676L31.9664 38.5252L38.048 35.8666L33.3473 28.7089Z" fill="#EABE6F" stroke="#FEFFFF" stroke-width="0.0457289"/>
<path d="M38.0475 35.8666L31.9658 38.5252L36.6666 45.6828L42.7482 43.0242L38.0475 35.8666Z" fill="#E6B473" stroke="#FEFFFF" stroke-width="0.0457289"/>
<path d="M25.3268 4.57748L19.2451 7.23608L23.9459 14.3937L30.0275 11.7351L25.3268 4.57748Z" fill="#F3D466" stroke="#FEFFFF" stroke-width="0.0457289"/>
<path d="M30.027 11.7351L23.9453 14.3937L28.6461 21.5513L34.7277 18.8927L30.027 11.7351Z" fill="#EEC86B" stroke="#FEFFFF" stroke-width="0.0457289"/>
<path d="M34.7281 18.8927L28.6465 21.5513L33.3472 28.709L39.4289 26.0504L34.7281 18.8927Z" fill="#EABE6F" stroke="#FEFFFF" stroke-width="0.0457289"/>
<path d="M39.4293 26.0503L33.3477 28.7089L38.0484 35.8666L44.13 33.208L39.4293 26.0503Z" fill="#E6B473" stroke="#FEFFFF" stroke-width="0.0457289"/>
<path d="M44.1295 33.208L38.0479 35.8666L42.7486 43.0242L48.8302 40.3656L44.1295 33.208Z" fill="#E2AC77" stroke="#FEFFFF" stroke-width="0.0457289"/>
<path d="M31.4078 1.91888L25.3262 4.57748L30.0269 11.7351L36.1086 9.07651L31.4078 1.91888Z" fill="#EEC86B" stroke="#FEFFFF" stroke-width="0.0457289"/>
<path d="M36.109 9.07654L30.0273 11.7351L34.7281 18.8928L40.8097 16.2342L36.109 9.07654Z" fill="#EABE6F" stroke="#FEFFFF" stroke-width="0.0457289"/>
<path d="M40.8102 16.2341L34.7285 18.8927L39.4293 26.0504L45.5109 23.3918L40.8102 16.2341Z" fill="#E6B473" stroke="#FEFFFF" stroke-width="0.0457289"/>
<path d="M45.5103 23.3918L39.4287 26.0504L44.1295 33.208L50.2111 30.5494L45.5103 23.3918Z" fill="#E2AC77" stroke="#FEFFFF" stroke-width="0.0457289"/>
<path d="M50.2115 30.5494L44.1299 33.208L48.8306 40.3656L54.9123 37.707L50.2115 30.5494Z" fill="#DEA57B" stroke="#FEFFFF" stroke-width="0.0457289"/>
<path d="M18.4278 7.1756L11.3594 8.71951L14.1176 16.0435L21.186 14.4996L18.4278 7.1756Z" fill="#49A57F" stroke="#FEFFFF" stroke-width="0.0456588"/>
<path d="M21.1866 14.4997L14.1182 16.0436L16.8764 23.3676L23.9448 21.8237L21.1866 14.4997Z" fill="#4FA491" stroke="#FEFFFF" stroke-width="0.0456588"/>
<path d="M23.9444 21.8236L16.876 23.3675L19.6342 30.6915L26.7026 29.1476L23.9444 21.8236Z" fill="#56A2A0" stroke="#FEFFFF" stroke-width="0.0456588"/>
<path d="M26.7022 29.1476L19.6338 30.6916L22.392 38.0156L29.4604 36.4717L26.7022 29.1476Z" fill="#5D95A0" stroke="#FEFFFF" stroke-width="0.0456588"/>
<path d="M29.461 36.4717L22.3926 38.0156L25.1508 45.3396L32.2192 43.7957L29.461 36.4717Z" fill="#65899E" stroke="#FEFFFF" stroke-width="0.0456588"/>
<path d="M25.4962 5.63175L18.4277 7.17566L21.186 14.4997L28.2544 12.9558L25.4962 5.63175Z" fill="#4FA491" stroke="#FEFFFF" stroke-width="0.0456588"/>
<path d="M28.255 12.9557L21.1865 14.4996L23.9447 21.8236L31.0132 20.2797L28.255 12.9557Z" fill="#56A2A0" stroke="#FEFFFF" stroke-width="0.0456588"/>
<path d="M31.0128 20.2797L23.9443 21.8236L26.7026 29.1476L33.771 27.6037L31.0128 20.2797Z" fill="#5D95A0" stroke="#FEFFFF" stroke-width="0.0456588"/>
<path d="M33.7716 27.6037L26.7031 29.1476L29.4613 36.4716L36.5298 34.9277L33.7716 27.6037Z" fill="#65899E" stroke="#FEFFFF" stroke-width="0.0456588"/>
<path d="M36.5294 34.9277L29.4609 36.4716L32.2192 43.7956L39.2876 42.2517L36.5294 34.9277Z" fill="#6D829B" stroke="#FEFFFF" stroke-width="0.0456588"/>
<path d="M32.5645 4.0878L25.4961 5.63171L28.2543 12.9557L35.3227 11.4118L32.5645 4.0878Z" fill="#56A2A0" stroke="#FEFFFF" stroke-width="0.0456588"/>
<path d="M35.3233 11.4119L28.2549 12.9558L31.0131 20.2798L38.0815 18.7359L35.3233 11.4119Z" fill="#5D95A0" stroke="#FEFFFF" stroke-width="0.0456588"/>
<path d="M38.0811 18.7358L31.0127 20.2797L33.7709 27.6037L40.8393 26.0598L38.0811 18.7358Z" fill="#65899E" stroke="#FEFFFF" stroke-width="0.0456588"/>
<path d="M40.8399 26.0599L33.7715 27.6038L36.5297 34.9278L43.5981 33.3839L40.8399 26.0599Z" fill="#6D829B" stroke="#FEFFFF" stroke-width="0.0456588"/>
<path d="M43.5977 33.3839L36.5293 34.9278L39.2875 42.2518L46.3559 40.7079L43.5977 33.3839Z" fill="#757E98" stroke="#FEFFFF" stroke-width="0.0456588"/>
<path d="M39.6329 2.54389L32.5645 4.0878L35.3227 11.4118L42.3911 9.86789L39.6329 2.54389Z" fill="#5D95A0" stroke="#FEFFFF" stroke-width="0.0456588"/>
<path d="M42.3917 9.86796L35.3232 11.4119L38.0815 18.7359L45.1499 17.192L42.3917 9.86796Z" fill="#65899E" stroke="#FEFFFF" stroke-width="0.0456588"/>
<path d="M45.1495 17.1919L38.0811 18.7358L40.8393 26.0598L47.9077 24.5159L45.1495 17.1919Z" fill="#6D829B" stroke="#FEFFFF" stroke-width="0.0456588"/>
<path d="M47.9083 24.5159L40.8398 26.0598L43.5981 33.3838L50.6665 31.8399L47.9083 24.5159Z" fill="#757E98" stroke="#FEFFFF" stroke-width="0.0456588"/>
<path d="M50.6661 31.8399L43.5977 33.3839L46.3559 40.7079L53.4243 39.1639L50.6661 31.8399Z" fill="#7C7E95" stroke="#FEFFFF" stroke-width="0.0456588"/>
<path d="M46.7022 1.00001L39.6338 2.54391L42.392 9.86792L49.4604 8.32401L46.7022 1.00001Z" fill="#65899E" stroke="#FEFFFF" stroke-width="0.0456588"/>
<path d="M49.46 8.32401L42.3916 9.86792L45.1498 17.1919L52.2182 15.648L49.46 8.32401Z" fill="#6D829B" stroke="#FEFFFF" stroke-width="0.0456588"/>
<path d="M52.2178 15.648L45.1494 17.1919L47.9076 24.5159L54.9761 22.972L52.2178 15.648Z" fill="#757E98" stroke="#FEFFFF" stroke-width="0.0456588"/>
<path d="M54.9766 22.972L47.9082 24.5159L50.6664 31.8399L57.7348 30.296L54.9766 22.972Z" fill="#7C7E95" stroke="#FEFFFF" stroke-width="0.0456588"/>
<path d="M57.7344 30.296L50.666 31.8399L53.4242 39.1639L60.4927 37.62L57.7344 30.296Z" fill="#868493" stroke="#FEFFFF" stroke-width="0.0456588"/>
<path d="M30.5154 5.00169L22.9961 5.1669L24.1219 12.5934L31.6412 12.4281L30.5154 5.00169Z" fill="#473DD7" stroke="#FEFFFF" stroke-width="0.0456215"/>
<path d="M31.6414 12.4281L24.1221 12.5934L25.2479 20.0198L32.7672 19.8546L31.6414 12.4281Z" fill="#4348D1" stroke="#FEFFFF" stroke-width="0.0456215"/>
<path d="M32.7673 19.8546L25.248 20.0198L26.3739 27.4463L33.8932 27.2811L32.7673 19.8546Z" fill="#495BCB" stroke="#FEFFFF" stroke-width="0.0456215"/>
<path d="M33.8933 27.2811L26.374 27.4463L27.4998 34.8727L35.0191 34.7075L33.8933 27.2811Z" fill="#4F6BC5" stroke="#FEFFFF" stroke-width="0.0456215"/>
<path d="M35.0193 34.7076L27.5 34.8728L28.6258 42.2992L36.1451 42.134L35.0193 34.7076Z" fill="#5479C0" stroke="#FEFFFF" stroke-width="0.0456215"/>
<path d="M38.0349 4.83649L30.5156 5.00171L31.6414 12.4282L39.1607 12.2629L38.0349 4.83649Z" fill="#4348D1" stroke="#FEFFFF" stroke-width="0.0456215"/>
<path d="M39.1609 12.2629L31.6416 12.4282L32.7674 19.8546L40.2867 19.6894L39.1609 12.2629Z" fill="#495BCB" stroke="#FEFFFF" stroke-width="0.0456215"/>
<path d="M40.2869 19.6894L32.7676 19.8546L33.8934 27.2811L41.4127 27.1159L40.2869 19.6894Z" fill="#4F6BC5" stroke="#FEFFFF" stroke-width="0.0456215"/>
<path d="M41.4128 27.1158L33.8936 27.281L35.0194 34.7075L42.5387 34.5423L41.4128 27.1158Z" fill="#5479C0" stroke="#FEFFFF" stroke-width="0.0456215"/>
<path d="M42.5388 34.5423L35.0195 34.7075L36.1454 42.134L43.6646 41.9688L42.5388 34.5423Z" fill="#5A85BA" stroke="#FEFFFF" stroke-width="0.0456215"/>
<path d="M45.5544 4.6713L38.0352 4.83652L39.161 12.263L46.6803 12.0978L45.5544 4.6713Z" fill="#495BCB" stroke="#FEFFFF" stroke-width="0.0456215"/>
<path d="M46.6804 12.0978L39.1611 12.263L40.287 19.6894L47.8062 19.5242L46.6804 12.0978Z" fill="#4F6BC5" stroke="#FEFFFF" stroke-width="0.0456215"/>
<path d="M47.8064 19.5242L40.2871 19.6895L41.4129 27.1159L48.9322 26.9507L47.8064 19.5242Z" fill="#5479C0" stroke="#FEFFFF" stroke-width="0.0456215"/>
<path d="M48.9324 26.9506L41.4131 27.1158L42.5389 34.5423L50.0582 34.3771L48.9324 26.9506Z" fill="#5A85BA" stroke="#FEFFFF" stroke-width="0.0456215"/>
<path d="M50.0574 34.3771L42.5381 34.5423L43.6639 41.9688L51.1832 41.8035L50.0574 34.3771Z" fill="#608EB4" stroke="#FEFFFF" stroke-width="0.0456215"/>
<path d="M53.074 4.50605L45.5547 4.67126L46.6805 12.0977L54.1998 11.9325L53.074 4.50605Z" fill="#4F6BC5" stroke="#FEFFFF" stroke-width="0.0456215"/>
<path d="M54.1999 11.9325L46.6807 12.0977L47.8065 19.5242L55.3258 19.359L54.1999 11.9325Z" fill="#5479C0" stroke="#FEFFFF" stroke-width="0.0456215"/>
<path d="M55.3249 19.359L47.8057 19.5242L48.9315 26.9507L56.4508 26.7854L55.3249 19.359Z" fill="#5A85BA" stroke="#FEFFFF" stroke-width="0.0456215"/>
<path d="M56.4509 26.7854L48.9316 26.9507L50.0575 34.3771L57.5767 34.2119L56.4509 26.7854Z" fill="#608EB4" stroke="#FEFFFF" stroke-width="0.0456215"/>
<path d="M57.5769 34.2119L50.0576 34.3771L51.1834 41.8036L58.7027 41.6383L57.5769 34.2119Z" fill="#6695AE" stroke="#FEFFFF" stroke-width="0.0456215"/>
<path d="M60.5925 4.34086L53.0732 4.50607L54.1991 11.9325L61.7183 11.7673L60.5925 4.34086Z" fill="#5479C0" stroke="#FEFFFF" stroke-width="0.0456215"/>
<path d="M61.7185 11.7673L54.1992 11.9325L55.325 19.359L62.8443 19.1938L61.7185 11.7673Z" fill="#5A85BA" stroke="#FEFFFF" stroke-width="0.0456215"/>
<path d="M62.8445 19.1938L55.3252 19.359L56.451 26.7854L63.9703 26.6202L62.8445 19.1938Z" fill="#608EB4" stroke="#FEFFFF" stroke-width="0.0456215"/>
<path d="M63.9705 26.6202L56.4512 26.7854L57.577 34.2119L65.0963 34.0466L63.9705 26.6202Z" fill="#6695AE" stroke="#FEFFFF" stroke-width="0.0456215"/>
<path d="M65.0964 34.0466L57.5771 34.2119L58.703 41.6383L66.2222 41.4731L65.0964 34.0466Z" fill="#6C99A8" stroke="#FEFFFF" stroke-width="0.0456215"/>
<ellipse cx="44" cy="23.5" rx="10" ry="9.5" fill="#EFEFEF"/>
<path d="M43.99 13C38.47 13 34 17.48 34 23C34 28.52 38.47 33 43.99 33C49.52 33 54 28.52 54 23C54 17.48 49.52 13 43.99 13ZM44 31C39.58 31 36 27.42 36 23C36 18.58 39.58 15 44 15C48.42 15 52 18.58 52 23C52 27.42 48.42 31 44 31Z" fill="#151515"/>
<path d="M44.5 18H43V24L48.25 27.15L49 25.92L44.5 23.25V18Z" fill="#151515"/>
</svg>
